<?xml version="1.0" encoding="utf-8"?>
<!-- Generator: Adobe Illustrator 16.0.0, SVG Export Plug-In . SVG Version: 6.00 Build 0)  -->
<!DOCTYPE svg PUBLIC "-//W3C//DTD SVG 1.1//EN" "http://www.w3.org/Graphics/SVG/1.1/DTD/svg11.dtd">
<svg version="1.1" id="Layer_1" xmlns="http://www.w3.org/2000/svg" xmlns:xlink="http://www.w3.org/1999/xlink" x="0px" y="0px"
 viewBox="0 0 105 22" enable-background="new 0 0 105 22" xml:space="preserve" preserveAspectRatio="xMinYMid meet">
<g>
	<path fill="#FFFFFF" d="M37.717,10.657l-0.333-0.11l0.015,2.793l-4.889,2.524l-0.014,0.943l-0.748-0.421l0.013-0.541l0.001,0.024
		l5.061-2.822c-0.005-1-0.029-1.997,0.021-2.96l-3.066-2.666l-0.332,0.002l-4.37,2.928l0.041,7.622l3.635,1.774l0.518,0.091
		l3.018-3.087l0.127-0.556c-0.001-0.148-0.169-0.277-0.335-0.241l-1.731,1.473c-0.553,0.244-0.981-0.235-1.426-0.438l-0.004-0.832
		l4.63-2.392l0.22-0.297L37.717,10.657z M33.798,11.325l0.11,2.366l-1.186,0.711l-0.03-3.603l-0.425-0.048l0.031,3.892l-0.542,0.26
		c0,0-0.008,0.046-0.017,0.108l-0.027-5.031L33.798,11.325z"/>
	<path fill="#FFFFFF" d="M59.486,2.748l2.038,1.007l0.241-0.075c-0.02-0.111,0.053-0.259-0.058-0.333L59.5,2.304
		c-0.721-0.015-1.217,0.542-1.845,0.769c-0.167-0.092-0.445-0.22-0.28-0.461c0.589-0.393,1.216-0.858,1.921-0.769
		c1.278,0.419,2.391,1.042,3.47,1.868l3.187-2.292c0.333-0.168,0.646-0.557,0.569-0.891c-0.186-0.018-0.5,0.002-0.536,0.207
		c-1.824,1.305-3.297-0.649-5.091-0.639c-1.459,0.415-2.675,1.439-3.945,2.241c-0.091,0.407,0.039,0.684,0.282,0.979
		C58.011,3.92,58.708,2.881,59.486,2.748z"/>
	<path fill="#FFFFFF" d="M1.79,3.559c2.832,0.17,5.519,1.173,8.553,1.083c0.352,0.015,0.758-0.115,0.979-0.282l0.057,0.092
		c1.754-0.453,2.859-1.515,3.719-3.09c0.056-0.149,0.147-0.354-0.02-0.5c-0.443,0.188-0.904,0.579-1.365,0.71
		C9.976,1.757,7.176,0.533,3.566,0.293C2.181,0.467,1.132,1.768,0.417,2.918c-0.219,0.501-0.53,1.075-0.436,1.593
		C0.497,4.028,1.067,3.451,1.79,3.559z"/>
	<path fill="#FFFFFF" d="M68.224,17.912c-0.035,0.075-0.166,0.001-0.111,0.131c1.114,0.752,2.268,1.542,3.472,2.107
		c0.901-0.984,1.987-1.878,2.965-2.808l-0.003-0.464c-0.481-0.052-0.813,0.375-1.182,0.525c-0.721,0.28-1.094-0.494-1.614-0.787
		l0.024-2.368c-0.52-0.515-0.985-1.087-1.562-1.546v-0.109l2.911-2.367l-0.04-0.424c-0.911-0.845-1.767-1.896-2.751-2.538
		c-1.426-0.233-2.775,0.071-3.73,1.092l-0.023-4.185c1.037,0.402,2.058,0.822,3.223,0.889c1.425,0.049,2.457-0.881,3.395-1.924
		c0.403-0.483,0.92-0.966,0.934-1.559l-0.201,0.001c-0.589,0.798-1.252,1.634-2.062,2.287c-1.674,1.601-4.105,0.465-5.772-0.266
		l0.023,4.298c0.058,0.537-0.051,1.092-0.586,1.224l0.003-6.313l0.462-0.058c0.948,0.55,1.893,0.971,2.912,1.262
		c1.595,0.546,2.771-0.589,3.895-1.52c0.515-0.595,1.048-1.171,1.137-1.948c-0.094-0.092-0.187-0.222-0.334-0.183
		c-0.589,0.465-1.196,1.19-1.843,1.415c-1.441,0.359-2.738-0.355-3.872-1.145l-0.536-0.109c-1.769,1.656-3.388,3.312-5.548,4.1
		c-0.385,0.557,0.521,0.482,0.523,0.945l0.117,11.23l3.112-2.33l-0.024-4.568l1.641-1.157l0.555,0.034l-1.547,1.062l-0.015,4.199
		l0.368-0.279l-0.019-3.552l1.565-1.081l2.215,2.449l-4.091,2.833l-0.093,0.241c0.467,0.606,0.996-0.819,1.462,0.029
		c-0.386,0.335-0.92,0.635-1.159,1.005c0.504,0.7,1.052-0.487,1.605-0.62l0.316,0.276C68.399,16.191,68.404,17.116,68.224,17.912z"
		/>
	<path fill="#FFFFFF" d="M16.076,0.763l-0.204,0.001c-0.235,0.945-0.935,1.688-1.541,2.487c0.798,0.68,1.598,1.546,2.417,2.318
		c-0.792,0.875-1.619,1.821-2.335,2.732l1.898,1.952l-0.516,0.686c0.029,1.924-0.034,3.904,0.087,5.791
		c0.187,0.258,0.429,0.607,0.798,0.457c0.146-0.313-0.318-0.441-0.429-0.699l0.008-5.384c0.221-0.314,0.516-0.613,0.661-0.965
		l-1.86-1.915l2.225-2.564l-0.001-0.204l-2.288-2.337C15.677,2.412,16.173,1.762,16.076,0.763z"/>
	<path fill="#FFFFFF" d="M22.29,7.279l-0.408,0.002l-4.053,3.185c0.021,0.315,0.409,0.46,0.614,0.7l0.032,5.901
		c-0.184,0.279-0.589,0.466-0.551,0.854l3.119,2.036l0.518,0.073l1.97-1.843c0.854,0.625,1.617,1.436,2.526,1.909
		c0.643-0.892,1.656-1.71,2.373-2.563c-0.15-0.407-0.592,0.076-0.924,0.06c-0.481,0.058-0.871-0.181-1.187-0.476L26.215,4.724
		l-1.919-2.562l-0.24,0.001l-2.521,2.529l0.002,0.37c0.426,0.202,0.553-0.391,0.924-0.283l1.098,1.216l0.024,1.312
		c-0.296-0.165-0.447-0.701-0.872-0.513l0.008,0.326c0.166-0.102,0.769,0.429,0.769,0.429l-0.037,0.33L22.29,7.279z M23.607,11.082
		l0.099,6.129c-0.461,0.935-1.097,0.505-1.097,0.505l-1.505-0.99l-0.069-6.997l0.398-0.202l1.706,1.188v0.002L23.607,11.082z"/>
	<path fill="#FFFFFF" d="M26.982,16.837c0.279,0.332,0.707,0.385,1.093,0.29c0.146-0.464-0.481-0.257-0.668-0.533L27.286,4.33
		l-1.769-2.174l-0.333,0.001l0.002,0.297L26.9,4.609C26.884,8.66,26.87,12.786,26.982,16.837z"/>
	<path fill="#FFFFFF" d="M15.952,5.518c-0.668-0.551-1.3-1.177-2.024-1.636l-1.692,1.951c0.484,0.609,1.228,1.085,1.803,1.674
		l0.37,0.017C14.905,6.875,15.624,6.261,15.952,5.518z"/>
	<path fill="#FFFFFF" d="M6.312,5.329c0.353-0.038,0.984,0.365,1.091-0.134C6.18,4.7,4.792,4.615,3.513,4.251
		c-0.814-0.05-1.703-0.285-2.497-0.022C0.703,4.49,0.04,4.826,0.356,5.324c0.331-0.26,0.663-0.651,1.106-0.727
		C3.164,4.569,4.721,5.042,6.312,5.329z"/>
	<path fill="#FFFFFF" d="M9.747,18.076c0.367-0.558,0.901-1.061,0.936-1.651c-0.703-0.145-0.864,0.838-1.549,0.95
		c-0.886,0.32-1.759-0.23-2.482-0.651c1.121-1.431,2.818-2.236,3.476-3.94l-0.02-7.29l1.702-0.102
		c0.591-0.021,0.718-0.669,1.068-0.948l-0.278,0.001c-0.604,1.113-1.94,0.417-2.92,0.644c-0.004,2.608,0.104,5.272-0.051,7.827
		c-0.769,1.427-2.335,2.546-3.439,3.754l-0.054,0.242c0.688,0.513,1.466,0.842,2.318,1.021c-0.333,0.299-0.832,0.208-1.257,0.191
		c-1.464-0.528-2.452-1.596-3.566-2.626L3.587,7.415l2.082-1.601l0.035-0.426L5.425,5.389L0.539,8.301l0.046,8.641
		c1.283,1.232,2.532,2.872,4.217,3.361C6.821,20.792,8.385,19.414,9.747,18.076z"/>
	<path fill="#FFFFFF" d="M5.448,16.396c1.473-1.116,2.928-2.364,3.641-3.978l0.016-7.714c-0.13,0-0.278-0.017-0.371-0.053
		L6.171,6.513l0.038,7.084c-0.014,0.982-0.453,1.78-0.967,2.559C5.262,16.286,5.372,16.341,5.448,16.396z"/>
	<path fill="#FFFFFF" d="M5.8,6.275L5.762,6.091c-0.553,0.28-1.013,0.838-1.604,1.192l0.041,7.641
		c0.076,0.498,0.542,0.995,0.95,1.086c-0.021-0.427-0.446-0.553-0.579-0.941L4.53,7.41L5.8,6.275z"/>
	<polygon fill="#FFFFFF" points="71.366,7.129 71.368,7.48 73.358,9.523 73.691,9.521 73.689,9.189 71.699,7.128 	"/>
	<polygon fill="#FFFFFF" points="37.136,9.457 37.134,9.105 35.092,7.415 34.758,7.417 34.759,7.73 36.766,9.459 	"/>
	<path fill="#FFFFFF" d="M42.094,9.246c-0.264-0.646-0.71-1.199-1.084-1.789l-0.332-0.036c0.096,0.721,0.636,1.273,0.989,1.881
		C41.816,9.284,41.983,9.358,42.094,9.246z"/>
	<path fill="#FFFFFF" d="M83.937,8.856l-0.002-0.332l-2.042-1.23L81.47,7.242l0.018,0.352C82.304,8.014,83.011,8.695,83.937,8.856z"
		/>
	<path fill="#FFFFFF" d="M78.943,8.864l0.37-0.002l-0.002-0.277l-1.321-1.27l-0.332,0.001C77.717,8.021,78.516,8.35,78.943,8.864z"
		/>
	<path fill="#FFFFFF" d="M91.732,17.215c-0.352-0.036-0.593-0.369-0.725-0.662l-0.032-5.754c0.113-0.148,0.369-0.299,0.334-0.538
		c-0.987-0.994-2.122-1.913-3.033-2.944l-0.39-0.054l-2.036,1.443l-2.516,1.782c-0.071,0.186,0.299,0.331,0.392,0.535
		c0.51,1.662,0.203,3.643,0.308,5.475c-0.111,0.426-0.626,0.763-0.511,1.223l2.804,2.224l0.166-0.001l2.044-1.915l2.321,1.744
		l0.241,0.037l1.874-2.693l-0.002-0.241C92.508,16.839,92.253,17.433,91.732,17.215z M88.825,16.824
		c-0.493,0.926-1.544,0.606-1.544,0.606l-1.006-0.969l0.07-7.063l0.167-0.036l2.284,2.062L88.825,16.824z"/>
	<path fill="#FFFFFF" d="M53.342,19.951l3.688-2.645l-0.021-3.793c-0.669-0.626-1.395-1.231-2.101-1.857l-0.369,0.002
		c-0.646,0.541-1.236,0.875-1.807,1.507c-0.406-0.071-0.742-0.459-1.113-0.697l0.024-2.588c0.872,0.586,2.058,0.802,3.072,0.39
		c1.033-0.468,1.729-1.563,2.021-2.563l-0.203,0.001c-0.387,0.317-0.773,0.485-1.255,0.581c-0.849,0.226-1.758-0.176-2.372-0.802
		c-1.365,0.802-2.691,1.771-4,2.667l0.021,4.012c0.705,0.459,1.357,1.233,2.19,1.45l1.915-1.562l1.227,0.955
		c-0.014,0.888,0.064,1.831-0.042,2.646c-0.501-0.275-1.056-0.383-1.631-0.51c-1.017-0.143-2.145,0.179-2.842,0.939
		c-0.423,0.373-0.921,0.838-1.122,1.395c0.296,0.018,0.518-0.262,0.812-0.301C50.857,18.707,52.211,19.274,53.342,19.951z"/>
	<path fill="#FFFFFF" d="M91.551,10.684l0.029,5.587c0.132,0.351,0.429,0.608,0.817,0.567c0.351-0.295-0.39-0.291-0.392-0.661
		L91.94,10.96c0.165-0.222,0.405-0.428,0.514-0.651c-0.837-1.104-2.027-2.023-3.049-3.017l-0.333,0.002l0.002,0.333l2.806,2.649
		L91.551,10.684z"/>
	<path fill="#FFFFFF" d="M38.883,10.835l0.031,5.863c-0.238,0.371-0.699,0.689-0.882,1.023l2.417,2.355
		c0.701-0.578,1.361-1.507,2.023-2.175l0-0.149c-0.371-0.183-0.724-0.568-0.949-0.901l0.005-6.086
		c0.275-0.333,0.774-0.263,1.201-0.32c0.648,0.236,0.947,0.79,1.32,1.343l0.028,5.234c-0.184,0.243-0.608,0.504-0.384,0.908
		l2.435,1.985l0.185-0.001l2.245-2.323l-0.001-0.332c-0.297-0.074-0.443,0.148-0.702,0.17c-0.427,0.002-0.833-0.162-1.094-0.494
		l-0.104-5.532c0.183-0.352,0.627-0.613,0.55-1.056l-2.531-2.799l-0.333,0.002l-2.726,2.383c-0.521-0.756-1.099-1.513-1.474-2.324
		l-0.315,0.001l-2.299,2.325l0.002,0.333l0.703-0.041L38.883,10.835z"/>
	<path fill="#FFFFFF" d="M47.817,10.418l-0.367,0.593l0.032,6.013l0.371,0.092l-0.031-5.81c0.164-0.352,0.496-0.631,0.512-1.039
		l-2.42-2.632l-0.333,0.002l0.057,0.406L47.817,10.418z"/>
	<path fill="#FFFFFF" d="M81.484,17.177l-0.002-0.296l-1.088,0.485c-0.685-0.014-1.262-0.474-1.653-1.027l0.006-5.993
		c0.943,0.272,1.799,0.859,2.891,0.834c0.682-0.521,1.343-1.135,2.061-1.712V9.357l-2.782-1.761l-0.147,0.001l-1.786,1.896
		l-1.953-2.024L76.808,7.47l-2.78,2.365c-0.148,0.167,0.021,0.37,0.095,0.479l0.94-0.393c0.594,0.164,0.854,0.661,1.136,1.178
		l0.025,4.81c-0.182,0.557-0.213,1.406-1.011,1.449l0.001,0.166c1.374,0.769,2.728,1.539,4.12,2.215
		C80.107,19.015,80.749,18.013,81.484,17.177z"/>
	<path fill="#FFFFFF" d="M94.436,10.761l0.031,5.735l-0.477,0.743c-0.037,0.166-0.221,0.224-0.258,0.37
		c1.062,0.619,2.501,1.358,4.157,2.255c1.489-1.432,3.075-2.773,4.564-4.263l-0.029-5.382l0.368-0.483l-2.012-2.301l-2.566,1.982
		l0.223,0.698l1.294,1.229l0.029,5.549l-0.811,0.651l-1.928-1.091l-0.027-5.197l1.442-1.141L98.183,9.4l-0.899,0.681
		c-0.71-0.849-1.322-1.678-2.067-2.469l-2.727,2.235l-0.073,0.26C93.085,10.344,94.08,9.894,94.436,10.761z"/>
	<path fill="#FFFFFF" d="M101.985,7.43l-0.332,0.001l0.002,0.332l1.84,1.97c-0.186,0.112-0.2,0.297-0.33,0.427l0.031,5.847
		l-5.337,5.134l-3.75-2.386l-0.481-0.033l0.002,0.37c1.504,0.806,2.914,1.816,4.399,2.677c1.728-1.896,3.682-3.627,5.557-5.469
		l-0.031-5.919l0.477-0.705L101.985,7.43z"/>
	<path fill="#FFFFFF" d="M15.606,10.107l-1.99-2.08l-0.297-0.035l-2.153,2.083l0.001,0.24c0.429,0.331,1.113,0.402,1.282,0.974
		l0.031,5.9c-0.276,0.317-0.831,0.357-0.902,0.764c1.002,0.662,2.006,1.396,2.935,2.168c0.735-0.948,1.658-1.489,2.207-2.565
		c-0.445,0.003-1.055-0.049-1.354-0.547l0.003-6.438C15.368,10.351,15.737,10.366,15.606,10.107z"/>
	<polygon fill="#FFFFFF" points="97.685,9.579 97.683,9.282 96.364,7.737 96.028,7.738 96.029,8.016 97.317,9.526 	"/>
	<path fill="#FFFFFF" d="M55.898,9.95c-0.9,1.207-2.567,0.901-3.734,0.574l0.01,1.758l0.389,0.221l0.067-1.37
		c1.001,0.254,2.108,0.082,2.976-0.386c0.922-0.653,1.509-1.636,1.541-2.672l-0.131,0.001C56.576,8.67,56.486,9.409,55.898,9.95z"/>
	<path fill="#FFFFFF" d="M22.083,10.481c0-0.167-0.223-0.499-0.352-0.183l0.052,6.142c0.481,0.2,0.854,0.809,1.465,0.751
		l-0.001-0.334l-1.133-0.789L22.083,10.481z"/>
	<path fill="#FFFFFF" d="M75.342,10.271l-0.333,0.002c-0.311,0.353-1.032,0.394-0.938,0.947l0.259-0.001
		C74.7,10.978,75.42,10.862,75.342,10.271z"/>
	<path fill="#FFFFFF" d="M87.867,17.143l-0.001-0.148c-0.298-0.129-0.262-0.442-0.448-0.646l-0.029-5.623
		c-0.11-0.073-0.187-0.239-0.353-0.165l0.029,5.587l0.17,0.646C87.33,17.07,87.589,17.218,87.867,17.143z"/>
	<path fill="#FFFFFF" d="M99.151,17.026c-0.262-0.369-0.78-0.458-1.151-0.753l-0.024-4.625c0.22-0.334,0.866-0.411,0.716-0.946
		c-0.499-0.072-0.682,0.409-1.051,0.578l0.027,5.18C98.131,16.643,98.613,17.195,99.151,17.026z"/>
	<path fill="#FFFFFF" d="M72.821,16.129l-0.013-2.458l-0.838-0.847l1.73-1.564l-0.002-0.333l-0.333,0.002
		c-0.7,0.632-1.455,1.228-2.099,1.898c0.409,0.294,0.707,0.735,1.116,1.085l0.014,2.516c0.241,0.313,0.558,0.533,0.964,0.513
		c0.313-0.223,0.98-0.338,0.884-0.874C73.671,15.886,73.252,17.017,72.821,16.129z"/>
	<path fill="#FFFFFF" d="M79.36,10.991l0.048,5.438c0.39,0.184,0.761,0.459,1.188,0.512c0.257-0.168,0.72-0.337,0.681-0.706
		l-0.279,0.001c-0.402,0.538-0.85-0.014-1.259-0.143c0.011-1.479-0.052-3.052,0.051-4.532l1.186,0.476
		c0.799,0.33,1.349-0.525,1.996-0.825l-0.002-0.332c-0.61,0.003-1.016,0.561-1.551,0.766C80.695,11.52,80.065,11.172,79.36,10.991z"
		/>
	<path fill="#FFFFFF" d="M42.411,16.533l-0.102-5.013l-0.296-0.146l0.029,5.347l1.041,1.158l-2.758,3.05l-2.288-2.264l-0.333,0.002
		l0.001,0.296l2.509,2.446l0.333-0.021l3.055-3.345C43.358,17.473,42.801,17.048,42.411,16.533z"/>
	<path fill="#FFFFFF" d="M55.388,11.451l0.001,0.185l2.137,1.782l0.023,4.219l-4.055,2.98l-1.244-0.788
		c-0.87-0.272-2.037-0.637-2.905-0.132c-0.073,0.091-0.108,0.352,0.077,0.332l1.664-0.046c0.871,0.18,1.578,0.788,2.32,1.246
		l4.643-3.375l-0.025-4.716l-2.079-1.654L55.388,11.451z"/>
	<path fill="#FFFFFF" d="M65.656,15.133l-1.364,1.081l0.002,0.332c0.704-0.041,1.144-0.728,1.696-1.082l-0.001-0.333L65.656,15.133z
		"/>
	<path fill="#FFFFFF" d="M11.478,16.605l-0.22,0.093c-0.95,2.392-3.366,3.773-5.806,4.082l0.055,0.111
		c0.093,0.054,0.37,0.053,0.389-0.095c0.389,0.091,0.999-0.099,1.442-0.119c1.68-0.526,3.376-1.773,4.089-3.463
		C11.48,17.067,11.684,16.77,11.478,16.605z"/>
	<path fill="#FFFFFF" d="M64.63,20.318l2.075-2.693c-0.724-0.404-1.593-0.547-2.409-0.802c-1.536-0.51-2.883,0.553-4.118,1.316
		c-0.423,0.465-1.179,0.894-1.084,1.615l0.168,0.036l1.067-0.912C61.935,18.075,63.439,19.307,64.63,20.318z"/>
	<polygon fill="#FFFFFF" points="33.386,20.836 29.454,18.858 29.009,18.807 29.011,19.139 33.52,21.39 36.939,17.562
		36.938,17.228 36.605,17.229 	"/>
	<path fill="#FFFFFF" d="M49.334,17.625l-0.333,0.001l-2.887,3.18c-0.763-0.644-1.505-1.269-2.267-1.912l-0.333,0.002l0.002,0.351
		l2.471,2.114l0.242,0.092c0.993-1.135,2.041-2.343,3.053-3.438L49.334,17.625z"/>
	<path fill="#FFFFFF" d="M64.632,20.836c-1.334-0.658-2.437-2.613-4.098-1.717c-0.423,0.353-0.94,0.782-0.992,1.337
		c0.539,0.367,0.683-0.484,1.069-0.709c0.388-0.241,0.793-0.577,1.275-0.265l2.841,1.981l2.886-3.455l-0.002-0.333l-0.352,0.002
		L64.632,20.836z"/>
	<path fill="#FFFFFF" d="M26.097,20.854c-0.742-0.512-1.504-1.174-2.229-1.818l-0.296,0.001c-0.699,0.598-1.38,1.341-2.062,1.807
		l-3.324-2.148l-0.425-0.052l0.001,0.297l3.379,2.292c0.186,0.167,0.482,0.203,0.704,0.09c0.571-0.576,1.214-1.245,1.878-1.768
		l2.341,1.931l0.167-0.02l2.703-2.975l-0.001-0.333L28.6,18.16L26.097,20.854z"/>
	<path fill="#FFFFFF" d="M14.517,20.843l-2.656-2.021l-0.333,0.001l0.002,0.334c1.022,0.79,2.062,1.599,3.083,2.334l2.723-2.9
		l-0.001-0.334l-0.351,0.002L14.517,20.843z"/>
	<polygon fill="#FFFFFF" points="71.645,20.965 68.507,19.04 68.081,18.985 68.083,19.319 71.405,21.392 71.868,21.427
		74.979,18.395 74.978,18.062 74.645,18.063 	"/>
	<path fill="#FFFFFF" d="M79.654,20.867l-3.749-2.144l-0.407-0.017l0.002,0.332l3.266,1.87c0.39,0.165,0.799,0.533,1.185,0.382
		l1.932-2.435l-0.002-0.332l-0.335,0.003L79.654,20.867z"/>
	<path fill="#FFFFFF" d="M91.198,21.028c-0.854-0.643-1.709-1.379-2.526-2.021l-2.154,2.064l-3.047-2.537l-0.333,0.002l0.002,0.333
		l3.271,2.72l0.204-0.001l2.116-1.915c0.781,0.66,1.635,1.192,2.36,1.892l0.24,0.073c0.571-0.632,1.028-1.447,1.598-2.154
		l0.055-0.427l-0.335,0.002L91.198,21.028z"/>
</g>
</svg>
